<svg width="40" height="40" viewBox="0 0 40 40" fill="none" xmlns="http://www.w3.org/2000/svg">
<circle cx="20" cy="20" r="20" fill="#A80617"/>
<path d="M16.6667 15.7143C16.6667 14.1384 17.8625 12.8571 19.3333 12.8571H20.6667C22.1375 12.8571 23.3333 14.1384 23.3333 15.7143V15.875C23.3333 16.8482 22.8708 17.7545 22.1083 18.2768L20.35 19.4866C19.8337 19.8423 19.4091 20.3311 19.115 20.9083C18.8209 21.4855 18.6667 22.1326 18.6667 22.7902V22.8571C18.6667 23.6473 19.2625 24.2857 20 24.2857C20.7375 24.2857 21.3333 23.6473 21.3333 22.8571V22.7946C21.3333 22.4286 21.5083 22.0893 21.7917 21.8929L23.55 20.683C25.075 19.6295 26 17.8214 26 15.875V15.7143C26 12.558 23.6125 10 20.6667 10H19.3333C16.3875 10 14 12.558 14 15.7143C14 16.5045 14.5958 17.1429 15.3333 17.1429C16.0708 17.1429 16.6667 16.5045 16.6667 15.7143ZM20 30C20.442 30 20.866 29.8119 21.1785 29.477C21.4911 29.1421 21.6667 28.6879 21.6667 28.2143C21.6667 27.7407 21.4911 27.2865 21.1785 26.9516C20.866 26.6167 20.442 26.4286 20 26.4286C19.558 26.4286 19.134 26.6167 18.8215 26.9516C18.5089 27.2865 18.3333 27.7407 18.3333 28.2143C18.3333 28.6879 18.5089 29.1421 18.8215 29.477C19.134 29.8119 19.558 30 20 30Z" fill="#D9DADB"/>
</svg>
