<svg width="163" height="72" viewBox="0 0 163 72" fill="none" xmlns="http://www.w3.org/2000/svg">
<rect width="163" height="72" rx="10" fill="#D9DADB"/>
<path d="M60.618 25.3776C60.618 26.2122 60.3617 26.8807 59.8568 27.3793C59.2762 27.9703 58.5201 28.2677 57.5935 28.2677C56.708 28.2677 55.9519 27.9653 55.3316 27.3693C54.71 26.7645 54.3999 26.0223 54.3999 25.1339C54.3999 24.2455 54.71 23.5033 55.3316 22.9035C55.9519 22.3025 56.708 22.0001 57.5935 22.0001C58.0344 22.0001 58.4547 22.0888 58.8559 22.2538C59.2557 22.42 59.5812 22.6449 59.817 22.9223L59.2813 23.4496C58.87 22.976 58.3099 22.7423 57.5935 22.7423C56.9476 22.7423 56.3876 22.9622 55.9121 23.4058C55.4418 23.8507 55.206 24.4267 55.206 25.1339C55.206 25.8411 55.4418 26.4222 55.9121 26.867C56.3876 27.3056 56.9476 27.5305 57.5935 27.5305C58.2792 27.5305 58.8559 27.3056 59.3108 26.862C59.6107 26.5683 59.7811 26.1635 59.826 25.6462H57.5935V24.924H60.5719C60.6077 25.0802 60.618 25.2314 60.618 25.3776Z" fill="black" stroke="black" stroke-width="0.123029" stroke-miterlimit="10"/>
<path d="M65.3435 22.8735H62.5459V24.7728H65.068V25.495H62.5459V27.3943H65.3435V28.1302H61.7539V22.1376H65.3435V22.8735Z" fill="black" stroke="black" stroke-width="0.123029" stroke-miterlimit="10"/>
<path d="M68.6779 28.1302H67.8859V22.8735H66.1699V22.1376H70.3952V22.8735H68.6779V28.1302Z" fill="black" stroke="black" stroke-width="0.123029" stroke-miterlimit="10"/>
<path d="M73.4526 28.1302V22.1376H74.2434V28.1302H73.4526Z" fill="black" stroke="black" stroke-width="0.123029" stroke-miterlimit="10"/>
<path d="M77.7492 28.1302H76.9636V22.8735H75.2412V22.1376H79.4716V22.8735H77.7492V28.1302Z" fill="black" stroke="black" stroke-width="0.123029" stroke-miterlimit="10"/>
<path d="M87.4703 27.3593C86.8642 27.9653 86.1132 28.2677 85.2174 28.2677C84.3164 28.2677 83.5655 27.9653 82.9593 27.3593C82.3544 26.7545 82.0532 26.0123 82.0532 25.1339C82.0532 24.2555 82.3544 23.5133 82.9593 22.9085C83.5655 22.3025 84.3164 22.0001 85.2174 22.0001C86.1081 22.0001 86.8591 22.3025 87.4652 22.9135C88.0752 23.5233 88.3764 24.2605 88.3764 25.1339C88.3764 26.0123 88.0752 26.7545 87.4703 27.3593ZM83.545 26.857C84.0012 27.3056 84.5561 27.5305 85.2174 27.5305C85.8735 27.5305 86.4336 27.3056 86.8847 26.857C87.3396 26.4084 87.5703 25.8324 87.5703 25.1339C87.5703 24.4354 87.3396 23.8594 86.8847 23.4108C86.4336 22.9622 85.8735 22.7373 85.2174 22.7373C84.5561 22.7373 84.0012 22.9622 83.545 23.4108C83.09 23.8594 82.8593 24.4354 82.8593 25.1339C82.8593 25.8324 83.09 26.4084 83.545 26.857Z" fill="black" stroke="black" stroke-width="0.123029" stroke-miterlimit="10"/>
<path d="M89.4883 28.1302V22.1376H90.4494L93.438 26.7983H93.4726L93.438 25.6462V22.1376H94.2288V28.1302H93.4034L90.2739 23.2396H90.2393L90.2739 24.3967V28.1302H89.4883Z" fill="black" stroke="black" stroke-width="0.123029" stroke-miterlimit="10"/>
<path d="M38.8207 40.4435L26.4943 47.3528L26.4558 47.3715C26.0185 47.6277 25.5041 47.7714 24.9576 47.7714C23.588 47.7714 22.437 46.8655 22.1026 45.6411C22.0983 45.6369 22.0962 45.6349 22.0962 45.6349L33.053 34.3401L38.8207 40.4435Z" fill="#EA4335"/>
<path d="M45.6757 34.9397C45.6757 36.0329 45.0455 36.9887 44.1132 37.476L38.8213 40.4434L32.8027 34.5961L38.802 29.411L44.1196 32.4096L44.1325 32.4159C45.052 32.9031 45.6757 33.8527 45.6757 34.9397Z" fill="#FBBC04"/>
<path d="M33.4262 34.6274L22.0965 45.6348C22.0322 45.3974 22 45.1537 22 44.8976V24.9381C22 24.682 22.0322 24.4321 22.0965 24.1947L33.4262 34.6274Z" fill="#4285F4"/>
<path d="M22.0962 24.1947C22.437 22.9641 23.588 22.0582 24.9576 22.0582C25.517 22.0582 26.0378 22.2144 26.4879 22.4705L38.8014 29.4111L33.1301 34.9148L22.0962 24.1947Z" fill="#34A853"/>
<path d="M81.859 36.8818C79.451 36.8818 77.4838 38.6686 77.4838 41.1339C77.4838 43.5792 79.451 45.3848 81.859 45.3848C84.2722 45.3848 86.2394 43.5792 86.2394 41.1339C86.2394 38.6686 84.2722 36.8818 81.859 36.8818ZM81.859 43.7104C80.5377 43.7104 79.401 42.6471 79.401 41.1339C79.401 39.6008 80.5377 38.5562 81.859 38.5562C83.1803 38.5562 84.3222 39.6008 84.3222 41.1339C84.3222 42.6471 83.1803 43.7104 81.859 43.7104ZM72.3127 36.8818C69.8996 36.8818 67.9375 38.6686 67.9375 41.1339C67.9375 43.5792 69.8996 45.3848 72.3127 45.3848C74.7246 45.3848 76.6879 43.5792 76.6879 41.1339C76.6879 38.6686 74.7246 36.8818 72.3127 36.8818ZM72.3127 43.7104C70.9902 43.7104 69.8496 42.6471 69.8496 41.1339C69.8496 39.6008 70.9902 38.5562 72.3127 38.5562C73.634 38.5562 74.7707 39.6008 74.7707 41.1339C74.7707 42.6471 73.634 43.7104 72.3127 43.7104ZM60.953 38.1851V39.9919H65.3782C65.2488 41.0015 64.9028 41.7437 64.3722 42.261C63.7263 42.8857 62.7203 43.5792 60.953 43.5792C58.2297 43.5792 56.0972 41.4363 56.0972 38.7811C56.0972 36.1259 58.2297 33.9829 60.953 33.9829C62.4255 33.9829 63.4969 34.544 64.2876 35.2712L65.5935 33.9979C64.4876 32.9683 63.0163 32.1774 60.953 32.1774C57.2186 32.1774 54.0801 35.14 54.0801 38.7811C54.0801 42.4222 57.2186 45.3848 60.953 45.3848C62.9715 45.3848 64.4876 44.74 65.6794 43.5305C66.9007 42.3397 67.2813 40.6653 67.2813 39.3134C67.2813 38.8935 67.2455 38.5074 67.1814 38.1851H60.953ZM107.404 39.5858C107.044 38.6349 105.933 36.8818 103.67 36.8818C101.427 36.8818 99.5598 38.6049 99.5598 41.1339C99.5598 43.5155 101.408 45.3848 103.885 45.3848C105.888 45.3848 107.044 44.194 107.52 43.5005L106.033 42.5346C105.537 43.2418 104.862 43.7104 103.885 43.7104C102.915 43.7104 102.219 43.2768 101.773 42.4222L107.605 40.0693L107.404 39.5858ZM101.458 41.0015C101.408 39.3621 102.764 38.5224 103.735 38.5224C104.496 38.5224 105.142 38.8935 105.358 39.4246L101.458 41.0015ZM96.7173 45.1261H98.6345V32.631H96.7173V45.1261ZM93.5775 37.829H93.5134C93.0828 37.3316 92.2614 36.8818 91.2208 36.8818C89.037 36.8818 87.0403 38.7511 87.0403 41.1477C87.0403 43.5305 89.037 45.3848 91.2208 45.3848C92.2614 45.3848 93.0828 44.9312 93.5134 44.4189H93.5775V45.0287C93.5775 46.6543 92.6868 47.5277 91.2502 47.5277C90.0789 47.5277 89.3522 46.703 89.0524 46.0095L87.3851 46.688C87.8656 47.8151 89.1382 49.202 91.2502 49.202C93.4981 49.202 95.3948 47.9125 95.3948 44.775V37.1405H93.5775V37.829ZM91.3848 43.7104C90.0635 43.7104 88.9575 42.6321 88.9575 41.1477C88.9575 39.6495 90.0635 38.5562 91.3848 38.5562C92.6868 38.5562 93.7134 39.6495 93.7134 41.1477C93.7134 42.6321 92.6868 43.7104 91.3848 43.7104ZM116.38 32.631H111.795V45.1261H113.707V40.3917H116.38C118.504 40.3917 120.586 38.8935 120.586 36.5107C120.586 34.1291 118.499 32.631 116.38 32.631ZM116.43 38.6536H113.707V34.369H116.43C117.858 34.369 118.673 35.5248 118.673 36.5107C118.673 37.4778 117.858 38.6536 116.43 38.6536ZM128.25 36.8581C126.868 36.8581 125.432 37.4528 124.841 38.7711L126.538 39.4646C126.903 38.7711 127.575 38.5462 128.285 38.5462C129.276 38.5462 130.282 39.1272 130.298 40.153V40.2842C129.952 40.0893 129.211 39.8007 128.3 39.8007C126.472 39.8007 124.61 40.7816 124.61 42.6121C124.61 44.2864 126.107 45.3648 127.79 45.3648C129.077 45.3648 129.786 44.7987 130.232 44.1402H130.298V45.1061H132.145V40.313C132.145 38.0976 130.448 36.8581 128.25 36.8581ZM128.019 43.7054C127.394 43.7054 126.522 43.403 126.522 42.6471C126.522 41.68 127.609 41.3088 128.55 41.3088C129.392 41.3088 129.787 41.49 130.298 41.7287C130.148 42.8857 129.127 43.7054 128.019 43.7054ZM138.873 37.1317L136.675 42.5484H136.609L134.337 37.1317H132.275L135.689 44.7013L133.741 48.9134H135.739L141 37.1317H138.873ZM121.637 45.1261H123.554V32.631H121.637V45.1261Z" fill="black"/>
</svg>
