<svg width="40" height="40" viewBox="0 0 40 40" fill="none" xmlns="http://www.w3.org/2000/svg">
<circle cx="20" cy="20" r="20" fill="#A80617"/>
<path fill-rule="evenodd" clip-rule="evenodd" d="M11 12C11 11.4696 11.2188 10.9609 11.6083 10.5858C11.9978 10.2107 12.5261 10 13.0769 10H24.4405L29 14.3907V28C29 28.5304 28.7812 29.0391 28.3917 29.4142C28.0022 29.7893 27.4739 30 26.9231 30H13.0769C12.5261 30 11.9978 29.7893 11.6083 29.4142C11.2188 29.0391 11 28.5304 11 28V12ZM15.1538 15.3293L22.0769 15.3333V16.6667L15.1538 16.6627V15.3293ZM24.8462 19.3267H15.1538V20.66H24.8462V19.3267ZM24.8462 23.3347L15.1538 23.324V24.6573L24.8462 24.6667V23.3347Z" fill="#D9DADB"/>
</svg>
